<?xml version="1.0" encoding="UTF-8" standalone="no"?>
<svg
   width="179.9726"
   height="187.41289"
   viewBox="0 0 179.9726 187.41289"
   fill="none"
   version="1.1"
   id="svg22"
   sodipodi:docname="moon-2.svg"
   inkscape:version="1.2.2 (b0a8486541, 2022-12-01)"
   xml:space="preserve"
   xmlns:inkscape="http://www.inkscape.org/namespaces/inkscape"
   xmlns:sodipodi="http://sodipodi.sourceforge.net/DTD/sodipodi-0.dtd"
   xmlns="http://www.w3.org/2000/svg"
   xmlns:svg="http://www.w3.org/2000/svg"><defs
     id="defs26" /><sodipodi:namedview
     id="namedview24"
     pagecolor="#ffffff"
     bordercolor="#111111"
     borderopacity="1"
     inkscape:showpageshadow="0"
     inkscape:pageopacity="0"
     inkscape:pagecheckerboard="1"
     inkscape:deskcolor="#d1d1d1"
     showgrid="false"
     inkscape:zoom="1.3111111"
     inkscape:cx="104.11017"
     inkscape:cy="100.67797"
     inkscape:window-width="1920"
     inkscape:window-height="1011"
     inkscape:window-x="0"
     inkscape:window-y="0"
     inkscape:window-maximized="1"
     inkscape:current-layer="svg22" /><path
     d="m 86.679023,0.12842536 c -11.44337,-0.547131 -29.802496,0.13207 -27.445106,12.70418964 2.70186,14.409155 18.538806,12.60066 28.854386,12.062406 7.252,-0.3784 12.445997,-5.431132 13.153397,-12.062406 C 102.0212,5.5254004 93.943273,0.12842536 86.679023,0.12842536 Z"
     fill="#BBF3F6"
     id="path18"
     style="fill:#ffe6d5;fill-opacity:1;stroke-width:0.752062"
     sodipodi:nodetypes="csssc" /><path
     id="path1583"
     style="fill:#ffe6d5;stroke-width:6;stroke-linecap:round"
     d="m 43.283845,47.419472 c 1.02624,6.44668 -9.49567,10.63656 -21.07451,11.81972 -18.3106252,1.87103 -21.0745122,-5.29187 -21.0745092,-11.81972 -3e-6,-6.52785 9.4353792,-11.81972 21.0745092,-11.81972 11.63913,0 19.40906,1.35765 21.07451,11.81972 z"
     sodipodi:nodetypes="sssss" /><path
     id="path1583-9"
     style="fill:#ffe6d5;stroke-width:6;stroke-linecap:round"
     d="m 66.432595,128.43135 c 0.43189,-6.51355 -8.6756,-8.62476 -20.25444,-9.80792 -18.31063,-1.87103 -19.08432,4.92988 -19.08431,11.45773 -1e-5,6.52785 9.43538,11.81972 21.07451,11.81972 11.63913,0 17.76893,-5.99947 18.26424,-13.46953 z"
     sodipodi:nodetypes="sssss" /><path
     id="path1583-9-1"
     style="fill:#ffdcc5;fill-opacity:1;stroke-width:6;stroke-linecap:round"
     d="m 160.41927,144.05915 c 0.43189,-6.51355 -8.64313,-9.00356 -20.25444,-9.80792 -13.93472,-0.96531 -17.65647,5.66056 -16.26585,12.01859 1.39479,6.3771 6.61692,11.25886 18.25605,11.25886 11.63913,0 17.76893,-5.99947 18.26424,-13.46953 z"
     sodipodi:nodetypes="sssss" /><path
     id="path1583-9-1-2"
     style="fill:#ffdcc5;fill-opacity:1;stroke-width:3.63864;stroke-linecap:round"
     d="m 22.196545,82.915192 c 0.26055,-3.97069 -5.21434,-5.48861 -12.2193702,-5.97895 -8.406713,-0.58846 -10.65201904,3.4507 -9.81306804,7.32659 0.84146704,3.88751 3.99194204,6.86345 11.01374824,6.86345 7.0218,0 10.71987,-3.6573 11.01869,-8.21109 z"
     sodipodi:nodetypes="sssss" /><path
     id="path1583-6"
     style="fill:#ffe6d5;stroke-width:4.44038;stroke-linecap:round"
     d="m 123.43147,84.072962 c -0.71294,5.08241 6.59673,8.38562 14.64066,9.31839 12.72055,1.47508 14.64065,-4.17198 14.64065,-9.31839 0,-5.1464 -6.55484,-9.31839 -14.64065,-9.31839 -8.08582,0 -13.48366,1.07034 -14.64066,9.31839 z"
     sodipodi:nodetypes="sssss" /><path
     id="path1583-6-7"
     style="fill:#ffe6d5;stroke-width:1.58988;stroke-linecap:round"
     d="m 126.11329,108.86633 c -0.30711,1.51263 2.84156,2.49573 6.30651,2.77334 5.47942,0.43901 6.30651,-1.24166 6.30651,-2.77334 0,-1.53166 -2.82352,-2.77333 -6.30651,-2.77333 -3.48299,0 -5.80813,0.31855 -6.30651,2.77333 z"
     sodipodi:nodetypes="sssss" /><path
     id="path1583-6-7-5"
     style="fill:#ffe6d5;stroke-width:1.58988;stroke-linecap:round"
     d="m 167.35958,95.000992 c -0.30711,1.51263 2.84156,2.49573 6.30651,2.77334 5.47942,0.43901 6.30651,-1.24166 6.30651,-2.77334 0,-1.53166 -2.82352,-2.77333 -6.30651,-2.77333 -3.48299,0 -5.80813,0.31855 -6.30651,2.77333 z"
     sodipodi:nodetypes="sssss" /><path
     id="path1583-6-7-3"
     style="fill:#ffe6d5;stroke-width:1.58988;stroke-linecap:round"
     d="m 28.215355,13.563862 c -0.30711,1.51263 2.84156,2.49573 6.30651,2.77334 5.47942,0.43901 6.30651,-1.24166 6.30651,-2.77334 0,-1.53166 -2.82352,-2.77333 -6.30651,-2.77333 -3.48299,0 -5.80813,0.31855 -6.30651,2.77333 z"
     sodipodi:nodetypes="sssss" /><path
     id="path1583-6-7-56"
     style="fill:#ffe6d5;stroke-width:1.58988;stroke-linecap:round"
     d="m 130.14659,23.810922 c -0.30711,1.51263 2.84156,2.49573 6.30651,2.77334 5.47942,0.43901 6.30651,-1.24166 6.30651,-2.77334 0,-1.53166 -2.82352,-2.77333 -6.30651,-2.77333 -3.48299,0 -5.80813,0.31855 -6.30651,2.77333 z"
     sodipodi:nodetypes="sssss" /><path
     id="path1583-6-7-56-3"
     style="fill:#f1ceb7;fill-opacity:1;stroke-width:1.58988;stroke-linecap:round"
     d="m 51.734456,184.5686 c -0.30711,1.51263 2.84156,2.49573 6.30651,2.77334 5.479419,0.43901 6.306509,-1.24166 6.306509,-2.77334 0,-1.53166 -2.823519,-2.77333 -6.306509,-2.77333 -3.48299,0 -5.80813,0.31855 -6.30651,2.77333 z"
     sodipodi:nodetypes="sssss" /><path
     id="path1583-6-7-56-3-6"
     style="fill:#f1ceb7;fill-opacity:1;stroke-width:1.58988;stroke-linecap:round"
     d="m 7.5180248,151.30871 c -0.232992,1.5258 2.8339812,2.61685 6.3065102,2.77334 3.700752,0.16677 6.129611,-1.73586 6.129611,-3.26754 0,-1.53166 -2.593738,-2.32196 -6.129611,-2.27913 -3.482735,0.0422 -6.0315812,0.97289 -6.3065102,2.77333 z"
     sodipodi:nodetypes="sssss" /><path
     id="path1583-6-7-2"
     style="fill:#ffe6d5;stroke-width:1.58988;stroke-linecap:round"
     d="m 79.989953,148.39354 c -0.30711,1.51263 2.84156,2.49573 6.30651,2.77334 5.47942,0.43901 6.30651,-1.24166 6.30651,-2.77334 0,-1.53165 -2.82352,-2.77332 -6.30651,-2.77332 -3.48299,0 -5.80813,0.31854 -6.30651,2.77332 z"
     sodipodi:nodetypes="sssss" /></svg>
