<?xml version="1.0" encoding="UTF-8" standalone="no"?>
<svg
   width="360"
   height="360"
   viewBox="0 0 360 360"
   fill="none"
   version="1.1"
   id="svg22"
   sodipodi:docname="moon.svg"
   inkscape:version="1.2.2 (b0a8486541, 2022-12-01)"
   xmlns:inkscape="http://www.inkscape.org/namespaces/inkscape"
   xmlns:sodipodi="http://sodipodi.sourceforge.net/DTD/sodipodi-0.dtd"
   xmlns="http://www.w3.org/2000/svg"
   xmlns:svg="http://www.w3.org/2000/svg">
  <defs
     id="defs26" />
  <sodipodi:namedview
     id="namedview24"
     pagecolor="#ffffff"
     bordercolor="#111111"
     borderopacity="1"
     inkscape:showpageshadow="0"
     inkscape:pageopacity="0"
     inkscape:pagecheckerboard="1"
     inkscape:deskcolor="#d1d1d1"
     showgrid="false"
     inkscape:zoom="1.8541911"
     inkscape:cx="277.47949"
     inkscape:cy="165.57085"
     inkscape:window-width="1920"
     inkscape:window-height="1011"
     inkscape:window-x="0"
     inkscape:window-y="0"
     inkscape:window-maximized="1"
     inkscape:current-layer="svg22" />
  <path
     d="m 180.478,306.574 c 69.641,0 126.097,-56.455 126.097,-126.096 0,-69.642 -56.456,-126.0973 -126.097,-126.0973 -69.642,0 -126.0973,56.4553 -126.0973,126.0973 0,69.641 56.4553,126.096 126.0973,126.096 z"
     fill="#49C0F8"
     id="path6"
     style="fill:#ffeee3;fill-opacity:1" />
  <path
     d="m 175.43049,73.625085 c -11.44337,-0.547131 -29.8025,0.13207 -27.44511,12.70419 2.70186,14.409155 18.53881,12.60066 28.85439,12.062406 7.252,-0.3784 12.446,-5.431132 13.1534,-12.062406 0.7795,-7.307215 -7.29843,-12.70419 -14.56268,-12.70419 z"
     fill="#BBF3F6"
     id="path18"
     style="fill:#ffe6d5;fill-opacity:1;stroke-width:0.752062"
     sodipodi:nodetypes="csssc" />
  <path
     d="m 180.478,306.574 c 64.65894,-3.92586 89.16387,-36.93262 89.16387,-36.93262 C 137.30753,339.72632 24.926897,220.2116 91.3136,91.3136 68.494525,114.13268 54.3807,145.657 54.3807,180.478 c 0,34.8205 14.113825,66.3445 36.9329,89.16337 22.81908,22.81888 54.40741,39.04295 89.1644,36.93263 z"
     fill="#49C0F8"
     id="path1586"
     style="fill:#ffe6d5;fill-opacity:1"
     sodipodi:nodetypes="sccsss" />
  <path
     id="path1583"
     style="fill:#ffe6d5;stroke-width:6;stroke-linecap:round"
     d="m 134.97294,139.5266 c 1.02624,6.44668 -9.49567,10.63656 -21.07451,11.81972 -18.310625,1.87103 -21.074512,-5.29187 -21.074509,-11.81972 -3e-6,-6.52785 9.435379,-11.81972 21.074509,-11.81972 11.63913,0 19.40906,1.35765 21.07451,11.81972 z"
     sodipodi:nodetypes="sssss" />
  <path
     id="path1583-9"
     style="fill:#ffe6d5;stroke-width:6;stroke-linecap:round"
     d="m 158.12169,220.53848 c 0.43189,-6.51355 -8.6756,-8.62476 -20.25444,-9.80792 -18.31063,-1.87103 -19.08432,4.92988 -19.08431,11.45773 -1e-5,6.52785 9.43538,11.81972 21.07451,11.81972 11.63913,0 17.76893,-5.99947 18.26424,-13.46953 z"
     sodipodi:nodetypes="sssss" />
  <path
     id="path1583-9-1"
     style="fill:#ffdcc5;fill-opacity:1;stroke-width:6;stroke-linecap:round"
     d="m 252.10837,236.16628 c 0.43189,-6.51355 -8.64313,-9.00356 -20.25444,-9.80792 -13.93472,-0.96531 -17.65647,5.66056 -16.26585,12.01859 1.39479,6.3771 6.61692,11.25886 18.25605,11.25886 11.63913,0 17.76893,-5.99947 18.26424,-13.46953 z"
     sodipodi:nodetypes="sssss" />
  <path
     id="path1583-9-1-2"
     style="fill:#ffdcc5;fill-opacity:1;stroke-width:3.63864;stroke-linecap:round"
     d="m 113.88564,175.02232 c 0.26055,-3.97069 -5.21434,-5.48861 -12.21937,-5.97895 -8.406713,-0.58846 -10.652019,3.4507 -9.813068,7.32659 0.841467,3.88751 3.991942,6.86345 11.013748,6.86345 7.0218,0 10.71987,-3.6573 11.01869,-8.21109 z"
     sodipodi:nodetypes="sssss" />
  <path
     id="path1583-6"
     style="fill:#ffe6d5;stroke-width:4.44038;stroke-linecap:round"
     d="m 215.12057,176.18009 c -0.71294,5.08241 6.59673,8.38562 14.64066,9.31839 12.72055,1.47508 14.64065,-4.17198 14.64065,-9.31839 0,-5.1464 -6.55484,-9.31839 -14.64065,-9.31839 -8.08582,0 -13.48366,1.07034 -14.64066,9.31839 z"
     sodipodi:nodetypes="sssss" />
  <path
     id="path1583-6-7"
     style="fill:#ffe6d5;stroke-width:1.58988;stroke-linecap:round"
     d="m 217.80239,200.97346 c -0.30711,1.51263 2.84156,2.49573 6.30651,2.77334 5.47942,0.43901 6.30651,-1.24166 6.30651,-2.77334 0,-1.53166 -2.82352,-2.77333 -6.30651,-2.77333 -3.48299,0 -5.80813,0.31855 -6.30651,2.77333 z"
     sodipodi:nodetypes="sssss" />
  <path
     id="path1583-6-7-5"
     style="fill:#ffe6d5;stroke-width:1.58988;stroke-linecap:round"
     d="m 259.04868,187.10812 c -0.30711,1.51263 2.84156,2.49573 6.30651,2.77334 5.47942,0.43901 6.30651,-1.24166 6.30651,-2.77334 0,-1.53166 -2.82352,-2.77333 -6.30651,-2.77333 -3.48299,0 -5.80813,0.31855 -6.30651,2.77333 z"
     sodipodi:nodetypes="sssss" />
  <path
     id="path1583-6-7-3"
     style="fill:#ffe6d5;stroke-width:1.58988;stroke-linecap:round"
     d="m 119.90445,105.67099 c -0.30711,1.51263 2.84156,2.49573 6.30651,2.77334 5.47942,0.43901 6.30651,-1.24166 6.30651,-2.77334 0,-1.53166 -2.82352,-2.77333 -6.30651,-2.77333 -3.48299,0 -5.80813,0.31855 -6.30651,2.77333 z"
     sodipodi:nodetypes="sssss" />
  <path
     id="path1583-6-7-56"
     style="fill:#ffe6d5;stroke-width:1.58988;stroke-linecap:round"
     d="m 221.83569,115.91805 c -0.30711,1.51263 2.84156,2.49573 6.30651,2.77334 5.47942,0.43901 6.30651,-1.24166 6.30651,-2.77334 0,-1.53166 -2.82352,-2.77333 -6.30651,-2.77333 -3.48299,0 -5.80813,0.31855 -6.30651,2.77333 z"
     sodipodi:nodetypes="sssss" />
  <path
     id="path1583-6-7-2"
     style="fill:#ffe6d5;stroke-width:1.58988;stroke-linecap:round"
     d="m 171.67905,240.50067 c -0.30711,1.51263 2.84156,2.49573 6.30651,2.77334 5.47942,0.43901 6.30651,-1.24166 6.30651,-2.77334 0,-1.53165 -2.82352,-2.77332 -6.30651,-2.77332 -3.48299,0 -5.80813,0.31854 -6.30651,2.77332 z"
     sodipodi:nodetypes="sssss" />
</svg>
