<?xml version="1.0" encoding="UTF-8" standalone="no"?>
<!-- Created with Inkscape (http://www.inkscape.org/) -->

<svg
   width="879.84277"
   height="694.90344"
   viewBox="0 0 879.84277 694.90344"
   version="1.1"
   id="svg5"
   xml:space="preserve"
   inkscape:version="1.2.2 (b0a8486541, 2022-12-01)"
   sodipodi:docname="Neko-girl.svg"
   xmlns:inkscape="http://www.inkscape.org/namespaces/inkscape"
   xmlns:sodipodi="http://sodipodi.sourceforge.net/DTD/sodipodi-0.dtd"
   xmlns:xlink="http://www.w3.org/1999/xlink"
   xmlns="http://www.w3.org/2000/svg"
   xmlns:svg="http://www.w3.org/2000/svg"><sodipodi:namedview
     id="namedview7"
     pagecolor="#ffffff"
     bordercolor="#111111"
     borderopacity="1"
     inkscape:showpageshadow="0"
     inkscape:pageopacity="0"
     inkscape:pagecheckerboard="1"
     inkscape:deskcolor="#d1d1d1"
     inkscape:document-units="px"
     showgrid="false"
     inkscape:zoom="1.0754149"
     inkscape:cx="746.2236"
     inkscape:cy="451.91859"
     inkscape:window-width="1920"
     inkscape:window-height="1011"
     inkscape:window-x="0"
     inkscape:window-y="0"
     inkscape:window-maximized="1"
     inkscape:current-layer="layer17"
     showguides="true"><sodipodi:guide
       position="658.98985,303.79349"
       orientation="0,-1"
       id="guide460"
       inkscape:locked="false" /><sodipodi:guide
       position="687.81569,287.64415"
       orientation="1,0"
       id="guide3171"
       inkscape:locked="false" /><sodipodi:guide
       position="800.94327,569.70892"
       orientation="0,-1"
       id="guide3831"
       inkscape:locked="false" /><inkscape:grid
       type="xygrid"
       id="grid3833"
       originx="-2.8033918e-07"
       originy="-4.0308851e-07" /><sodipodi:guide
       position="822.8642,421.85971"
       orientation="0,-1"
       id="guide3835"
       inkscape:locked="false" /><sodipodi:guide
       position="895.1373,593.70361"
       orientation="1,0"
       id="guide3837"
       inkscape:locked="false" /><sodipodi:guide
       position="994.54101,486.92091"
       orientation="1,0"
       id="guide3839"
       inkscape:locked="false" /><sodipodi:guide
       position="588.68555,483.72118"
       orientation="1,0"
       id="guide3841"
       inkscape:locked="false" /><sodipodi:guide
       position="797.83161,638.18115"
       orientation="0,-1"
       id="guide4599"
       inkscape:locked="false" /><sodipodi:guide
       position="776.44451,2.147555"
       orientation="0,-1"
       id="guide4898"
       inkscape:locked="false" /></sodipodi:namedview><defs
     id="defs2"><linearGradient
       inkscape:collect="always"
       id="linearGradient5097"><stop
         style="stop-color:#ffb686;stop-opacity:1;"
         offset="0"
         id="stop5093" /><stop
         style="stop-color:#ffc9a6;stop-opacity:1;"
         offset="1"
         id="stop5095" /></linearGradient><linearGradient
       inkscape:collect="always"
       id="linearGradient4954"><stop
         style="stop-color:#4a3838;stop-opacity:1;"
         offset="0"
         id="stop4952" /><stop
         style="stop-color:#916f6f;stop-opacity:1;"
         offset="1"
         id="stop4950" /></linearGradient><linearGradient
       inkscape:collect="always"
       id="linearGradient4910"><stop
         style="stop-color:#916f6f;stop-opacity:1;"
         offset="0"
         id="stop4906" /><stop
         style="stop-color:#4a3838;stop-opacity:1;"
         offset="1"
         id="stop4908" /></linearGradient><linearGradient
       inkscape:collect="always"
       id="linearGradient1802"><stop
         style="stop-color:#ffaf7b;stop-opacity:1;"
         offset="0"
         id="stop1798" /><stop
         style="stop-color:#ffc9a6;stop-opacity:1;"
         offset="1"
         id="stop1800" /></linearGradient><linearGradient
       inkscape:collect="always"
       id="linearGradient1794"><stop
         style="stop-color:#ffad73;stop-opacity:1;"
         offset="0"
         id="stop1790" /><stop
         style="stop-color:#ffccaa;stop-opacity:1;"
         offset="1"
         id="stop1792" /></linearGradient><linearGradient
       inkscape:collect="always"
       id="linearGradient1168"><stop
         style="stop-color:#fcda3b;stop-opacity:1;"
         offset="0"
         id="stop1164" /><stop
         style="stop-color:#fbb00d;stop-opacity:1;"
         offset="1"
         id="stop1166" /></linearGradient><linearGradient
       inkscape:collect="always"
       id="linearGradient1065"><stop
         style="stop-color:#fcda3b;stop-opacity:1;"
         offset="0"
         id="stop1061" /><stop
         style="stop-color:#fbb00d;stop-opacity:1;"
         offset="1"
         id="stop1063" /></linearGradient><inkscape:path-effect
       effect="skeletal"
       id="path-effect3563"
       is_visible="true"
       lpeversion="1"
       pattern="M 0,18.867925 C 0,8.4528302 8.4528302,0 18.867925,0 c 10.415094,0 18.867924,8.4528302 18.867924,18.867925 0,10.415094 -8.45283,18.867924 -18.867924,18.867924 C 8.4528302,37.735849 0,29.283019 0,18.867925 Z"
       copytype="single_stretched"
       prop_scale="0.034931884"
       scale_y_rel="false"
       spacing="0"
       normal_offset="0"
       tang_offset="0"
       prop_units="false"
       vertical_pattern="false"
       hide_knot="false"
       fuse_tolerance="0" /><inkscape:path-effect
       effect="skeletal"
       id="path-effect3274"
       is_visible="true"
       lpeversion="1"
       pattern="M 0,18.867925 C 0,8.4528302 8.4528302,0 18.867925,0 c 10.415094,0 18.867924,8.4528302 18.867924,18.867925 0,10.415094 -8.45283,18.867924 -18.867924,18.867924 C 8.4528302,37.735849 0,29.283019 0,18.867925 Z"
       copytype="single_stretched"
       prop_scale="0.034931884"
       scale_y_rel="false"
       spacing="0"
       normal_offset="0"
       tang_offset="0"
       prop_units="false"
       vertical_pattern="false"
       hide_knot="false"
       fuse_tolerance="0" /><inkscape:path-effect
       effect="skeletal"
       id="path-effect2825"
       is_visible="true"
       lpeversion="1"
       pattern="M 0,18.867925 C 0,8.4528302 8.4528302,0 18.867925,0 c 10.415094,0 18.867924,8.4528302 18.867924,18.867925 0,10.415094 -8.45283,18.867924 -18.867924,18.867924 C 8.4528302,37.735849 0,29.283019 0,18.867925 Z"
       copytype="single_stretched"
       prop_scale="0.053210289"
       scale_y_rel="false"
       spacing="0"
       normal_offset="0"
       tang_offset="0"
       prop_units="false"
       vertical_pattern="false"
       hide_knot="false"
       fuse_tolerance="0" /><inkscape:path-effect
       effect="powerstroke"
       id="path-effect2788"
       is_visible="true"
       lpeversion="1"
       offset_points="0,2.6913576"
       not_jump="false"
       sort_points="true"
       interpolator_type="CubicBezierJohan"
       interpolator_beta="0.2"
       start_linecap_type="zerowidth"
       linejoin_type="extrp_arc"
       miter_limit="4"
       scale_width="1"
       end_linecap_type="zerowidth" /><inkscape:path-effect
       effect="powerstroke"
       id="path-effect2780"
       is_visible="true"
       lpeversion="1"
       offset_points="1,2.6913576"
       not_jump="false"
       sort_points="true"
       interpolator_type="CubicBezierJohan"
       interpolator_beta="0.2"
       start_linecap_type="zerowidth"
       linejoin_type="extrp_arc"
       miter_limit="4"
       scale_width="1"
       end_linecap_type="zerowidth" /><inkscape:path-effect
       effect="powerstroke"
       id="path-effect2772"
       is_visible="true"
       lpeversion="1"
       offset_points="1,2.6913576"
       not_jump="false"
       sort_points="true"
       interpolator_type="CubicBezierJohan"
       interpolator_beta="0.2"
       start_linecap_type="zerowidth"
       linejoin_type="extrp_arc"
       miter_limit="4"
       scale_width="1"
       end_linecap_type="zerowidth" /><inkscape:path-effect
       effect="powerstroke"
       id="path-effect2764"
       is_visible="true"
       lpeversion="1"
       offset_points="1,0.23806611"
       not_jump="false"
       sort_points="true"
       interpolator_type="CubicBezierJohan"
       interpolator_beta="0.2"
       start_linecap_type="zerowidth"
       linejoin_type="extrp_arc"
       miter_limit="4"
       scale_width="1"
       end_linecap_type="zerowidth" /><clipPath
       clipPathUnits="userSpaceOnUse"
       id="clipPath374"><rect
         style="fill:#6600ff;stroke:#15d554;stroke-width:2.489;stroke-linejoin:round;stroke-opacity:0.465218;paint-order:markers fill stroke"
         id="rect376"
         width="4189.9404"
         height="3449.6299"
         x="-1134.1949"
         y="-886.93591"
         transform="rotate(-90)" /></clipPath><clipPath
       clipPathUnits="userSpaceOnUse"
       id="clipPath374-3"><rect
         style="fill:#6600ff;stroke:#15d554;stroke-width:2.489;stroke-linejoin:round;stroke-opacity:0.465218;paint-order:markers fill stroke"
         id="rect376-6"
         width="4189.9404"
         height="3449.6299"
         x="-1134.1949"
         y="-886.93591"
         transform="rotate(-90)" /></clipPath><clipPath
       clipPathUnits="userSpaceOnUse"
       id="clipPath374-3-7"><rect
         style="fill:#6600ff;stroke:#15d554;stroke-width:2.489;stroke-linejoin:round;stroke-opacity:0.465218;paint-order:markers fill stroke"
         id="rect376-6-5"
         width="4189.9404"
         height="3449.6299"
         x="-1134.1949"
         y="-886.93591"
         transform="rotate(-90)" /></clipPath><inkscape:path-effect
       effect="fill_between_many"
       method="bsplinespiro"
       linkedpaths="#path2762,0,1"
       id="path-effect2766"
       is_visible="true"
       lpeversion="0"
       join="true"
       close="true"
       autoreverse="true" /><inkscape:path-effect
       effect="fill_between_many"
       method="bsplinespiro"
       linkedpaths="#path2770,0,1"
       id="path-effect2774"
       is_visible="true"
       lpeversion="0"
       join="true"
       close="true"
       autoreverse="true" /><inkscape:path-effect
       effect="fill_between_many"
       method="bsplinespiro"
       linkedpaths="#path2778,0,1"
       id="path-effect2782"
       is_visible="true"
       lpeversion="0"
       join="true"
       close="true"
       autoreverse="true" /><inkscape:path-effect
       effect="fill_between_many"
       method="bsplinespiro"
       linkedpaths="#path2786,0,1"
       id="path-effect2790"
       is_visible="true"
       lpeversion="0"
       join="true"
       close="true"
       autoreverse="true" /><inkscape:path-effect
       effect="skeletal"
       id="path-effect3274-5"
       is_visible="true"
       lpeversion="1"
       pattern="M 0,18.867925 C 0,8.4528302 8.4528302,0 18.867925,0 c 10.415094,0 18.867924,8.4528302 18.867924,18.867925 0,10.415094 -8.45283,18.867924 -18.867924,18.867924 C 8.4528302,37.735849 0,29.283019 0,18.867925 Z"
       copytype="single_stretched"
       prop_scale="0.034931884"
       scale_y_rel="false"
       spacing="0"
       normal_offset="0"
       tang_offset="0"
       prop_units="false"
       vertical_pattern="false"
       hide_knot="false"
       fuse_tolerance="0" /><linearGradient
       inkscape:collect="always"
       xlink:href="#linearGradient1065"
       id="linearGradient1067"
       x1="428.28458"
       y1="81.24762"
       x2="435.39914"
       y2="420.22516"
       gradientUnits="userSpaceOnUse" /><linearGradient
       inkscape:collect="always"
       xlink:href="#linearGradient1065"
       id="linearGradient1162"
       x1="637.87225"
       y1="226.03438"
       x2="602.91431"
       y2="391.87891"
       gradientUnits="userSpaceOnUse" /><linearGradient
       inkscape:collect="always"
       xlink:href="#linearGradient1168"
       id="linearGradient1170"
       x1="191.82082"
       y1="181.42982"
       x2="224.78242"
       y2="356.81451"
       gradientUnits="userSpaceOnUse" /><linearGradient
       inkscape:collect="always"
       xlink:href="#linearGradient1794"
       id="linearGradient1796"
       x1="452.18808"
       y1="233.1781"
       x2="507.70596"
       y2="423.26486"
       gradientUnits="userSpaceOnUse"
       spreadMethod="pad" /><linearGradient
       inkscape:collect="always"
       xlink:href="#linearGradient1802"
       id="linearGradient1804"
       x1="310.91672"
       y1="588.85809"
       x2="504.24942"
       y2="588.85809"
       gradientUnits="userSpaceOnUse" /><linearGradient
       inkscape:collect="always"
       xlink:href="#linearGradient4910"
       id="linearGradient4912"
       x1="110.25927"
       y1="574.4231"
       x2="327.92371"
       y2="567.34869"
       gradientUnits="userSpaceOnUse" /><linearGradient
       inkscape:collect="always"
       xlink:href="#linearGradient4910"
       id="linearGradient4946"
       x1="194.86172"
       y1="153.67574"
       x2="331.58597"
       y2="153.67574"
       gradientUnits="userSpaceOnUse"
       gradientTransform="translate(-122.02911,-70.356235)" /><linearGradient
       inkscape:collect="always"
       xlink:href="#linearGradient4954"
       id="linearGradient4948"
       x1="517.21545"
       y1="168.52229"
       x2="643.66858"
       y2="168.52229"
       gradientUnits="userSpaceOnUse"
       gradientTransform="translate(-122.02911,-70.356235)" /><linearGradient
       inkscape:collect="always"
       xlink:href="#linearGradient5097"
       id="linearGradient5091"
       x1="396.00299"
       y1="437.7825"
       x2="473.43024"
       y2="437.7825"
       gradientUnits="userSpaceOnUse" /><linearGradient
       inkscape:collect="always"
       xlink:href="#linearGradient5097"
       id="linearGradient414"
       gradientUnits="userSpaceOnUse"
       x1="396.00299"
       y1="437.7825"
       x2="473.43024"
       y2="437.7825" /><clipPath
       clipPathUnits="userSpaceOnUse"
       id="clipPath475"><rect
         style="fill:#ffccaa;stroke:#947c89;stroke-width:6;stroke-linecap:round;paint-order:stroke fill markers"
         id="rect477"
         width="1576.421"
         height="1295.8765"
         x="-2659.217"
         y="-420.65784"
         transform="rotate(-90)" /></clipPath></defs><g
     inkscape:label="Capa 1"
     inkscape:groupmode="layer"
     id="layer1"
     transform="translate(-69.580484,-219.52314)" /><g
     inkscape:groupmode="layer"
     id="layer2"
     inkscape:label="boceto body"
     transform="translate(-122.02911,-70.356235)"><path
       style="fill:url(#linearGradient1804);fill-opacity:1;stroke:#000000;stroke-width:4;stroke-dasharray:none;stroke-opacity:1;paint-order:markers fill stroke"
       d="m 378.29688,417.35534 c 0,0 -66.99565,134.94907 -65.34971,193.18167 1.30247,46.08093 35.51835,150.56726 63.84712,149.76965 22.35958,-0.62954 -2.78144,-86.26319 32.68493,-85.78786 23.56785,0.31586 -1.6369,84.63446 15.30329,86.02123 10.52133,0.86131 17.17001,-11.04848 24.30322,-19.95396 31.06173,-38.77908 51.44269,-89.3049 53.13209,-138.96167 1.48424,-43.62645 -51.04065,-185.40194 -51.04065,-185.40194 z"
       id="path404"
       sodipodi:nodetypes="csssssscc" /></g><g
     inkscape:groupmode="layer"
     id="layer3"
     inkscape:label="boceto tail"
     style="display:inline"
     transform="translate(-122.02911,-70.356235)"><path
       style="fill:url(#linearGradient4912);fill-opacity:1;stroke:#000000;stroke-width:4;stroke-dasharray:none;stroke-opacity:1;paint-order:markers fill stroke"
       d="m 312.05873,602.47994 c 0,0 -12.64121,-3.70413 -18.96044,-2.77344 -24.11136,3.55111 -92.3429,40.57866 -131.30258,5.5908 -15.99457,-14.36397 -12.19541,-29.59496 -7.03298,-43.05895 3.84445,-10.02659 12.2758,-30.5176 12.1042,-48.7928 -0.0858,-9.1432 -7.69868,-25.22345 -21.48475,-27.29956 -7.10003,-1.06923 -14.04969,5.88351 -14.47417,12.42168 -0.55132,8.49188 6.82335,11.41413 6.16411,22.32072 -0.82946,13.72292 -6.88147,29.00417 -10.51406,43.83049 -4.09609,16.71806 -4.05448,37.02709 6.79836,51.10362 40.27524,52.23847 108.56133,29.95224 145.35995,15.66807 14.27273,-5.54026 45.89804,1.73692 45.89804,1.73692 z"
       id="path1064"
       sodipodi:nodetypes="csssssssssscc" /><path
       id="path4238"
       style="fill:#fafcff;stroke-width:6;stroke-linecap:round;paint-order:stroke fill markers"
       d="m 150.69388,498.28652 c 3.74287,3.81684 5.65467,9.64697 2.70896,12.53558 -2.9457,2.88861 -7.67487,3.31364 -11.41774,-0.5032 -3.74287,-3.81684 -5.08209,-10.43021 -2.13639,-13.31882 2.9457,-2.88861 7.10229,-2.53042 10.84517,1.28644 z"
       sodipodi:nodetypes="sssss" /><path
       id="path4238-3"
       style="display:inline;fill:#fafcff;stroke-width:2.1255;stroke-linecap:round;paint-order:stroke fill markers"
       d="m 144.8475,523.20645 c 1.2704,1.4112 1.9193,3.56677 0.91947,4.63478 -0.99982,1.068 -2.60499,1.22515 -3.87538,-0.18605 -1.2704,-1.4112 -1.72496,-3.85636 -0.72513,-4.92437 0.99982,-1.068 2.41064,-0.93557 3.68104,0.47564 z"
       sodipodi:nodetypes="sssss" /></g><g
     inkscape:groupmode="layer"
     id="layer7"
     inkscape:label="boceto arms 2"
     style="display:inline"
     transform="translate(-122.02911,-70.356235)"><path
       style="opacity:1;fill:#002255;fill-opacity:1;stroke:#000000;stroke-width:4;stroke-linejoin:round;stroke-dasharray:none;stroke-opacity:1;paint-order:markers fill stroke"
       d="m 373.37401,423.93403 c 0,0 -12.14398,-7.28132 -21.87693,2.13817 -25.32646,27.60159 -40.2603,49.01661 -51.93483,79.34941 -0.5132,2.95896 5.76949,19.91643 5.20064,23.3855 0.60489,2.37276 1.60695,3.19127 2.4863,4.94558 -0.81266,1.56458 -1.25802,1.04354 -2.24964,3.41562 0.74606,2.42361 2.53332,4.86079 2.53332,4.86079 2.93065,3.92497 7.9271,8.55346 14.02555,13.01928 z"
       id="path1014"
       sodipodi:nodetypes="ccccccccc" /></g><g
     inkscape:groupmode="layer"
     id="layer9"
     inkscape:label="jersei"
     transform="translate(-122.02911,-70.356235)"><path
       style="fill:#002e75;fill-opacity:1;stroke:#000000;stroke-width:4;stroke-dasharray:none;stroke-opacity:1;paint-order:markers fill stroke"
       d="m 371.1185,427.88515 c 0,0 -87.43721,149.66202 -93.14277,197.07273 -1.99599,16.58598 49.52098,64.46494 49.52098,64.46494 53.33827,-1.52353 100.65007,-1.25491 154.27634,2.16778 1.90844,-10.07452 32.01793,-53.19801 31.73861,-71.57135 -0.28841,-18.97722 -64.30898,-191.33853 -64.30898,-191.33853 z"
       id="path1237"
       sodipodi:nodetypes="csccscc" /></g><g
     inkscape:groupmode="layer"
     id="layer5"
     inkscape:label="jersei line"
     transform="translate(-122.02911,-70.356235)"><path
       style="fill:#002255;fill-opacity:1;stroke:#000000;stroke-width:4;stroke-linecap:round;stroke-linejoin:miter;stroke-dasharray:none;paint-order:stroke fill markers"
       d="m 325.03897,685.78011 -14.18071,-14.86877 c 53.79084,-2.60485 114.84288,-1.46265 179.49493,1.53729 -3.63261,5.27528 -5.79645,9.02134 -8.25155,15.16111"
       id="path1867"
       sodipodi:nodetypes="cccc" /><path
       style="fill:#002e75;fill-opacity:1;stroke:#000000;stroke-width:2;stroke-linecap:round;stroke-linejoin:miter;stroke-dasharray:none;paint-order:stroke fill markers"
       d="m 334.77604,688.36091 -0.98471,-9.96433"
       id="path1869"
       sodipodi:nodetypes="cc" /><path
       style="fill:#002e75;fill-opacity:1;stroke:#000000;stroke-width:2;stroke-linecap:round;stroke-linejoin:miter;stroke-dasharray:none;paint-order:stroke fill markers"
       d="m 347.78536,686.5871 -0.33773,-8.73832"
       id="path1871"
       sodipodi:nodetypes="cc" /><path
       style="fill:#002e75;fill-opacity:1;stroke:#000000;stroke-width:2;stroke-linecap:round;stroke-linejoin:miter;stroke-dasharray:none;paint-order:stroke fill markers"
       d="m 357.36789,688.51611 v -8.28993"
       id="path1873" /><path
       style="fill:#002e75;fill-opacity:1;stroke:#000000;stroke-width:2;stroke-linecap:round;stroke-linejoin:miter;stroke-dasharray:none;paint-order:stroke fill markers"
       d="m 364.56208,687.7693 0.10624,-11.87609"
       id="path1875" /><path
       style="fill:#002e75;fill-opacity:1;stroke:#000000;stroke-width:2;stroke-linecap:round;stroke-linejoin:miter;stroke-dasharray:none;paint-order:stroke fill markers"
       d="m 374.87996,686.61106 -0.1979,-8.56178"
       id="path1877" /><path
       style="fill:#002e75;fill-opacity:1;stroke:#000000;stroke-width:2;stroke-linecap:round;stroke-linejoin:miter;stroke-dasharray:none;paint-order:stroke fill markers"
       d="m 383.02823,687.04436 -0.29469,-7.81841"
       id="path1879"
       sodipodi:nodetypes="cc" /><path
       style="fill:#002e75;fill-opacity:1;stroke:#000000;stroke-width:2;stroke-linecap:round;stroke-linejoin:miter;stroke-dasharray:none;paint-order:stroke fill markers"
       d="M 390.41824,687.46724 390.06827,676.6119"
       id="path1881" /><path
       style="fill:#002e75;fill-opacity:1;stroke:#000000;stroke-width:2;stroke-linecap:round;stroke-linejoin:miter;stroke-dasharray:none;paint-order:stroke fill markers"
       d="m 401.2517,687.91928 -0.0235,-8.79599"
       id="path1883"
       sodipodi:nodetypes="cc" /><path
       style="fill:#002e75;fill-opacity:1;stroke:#000000;stroke-width:2;stroke-linecap:round;stroke-linejoin:miter;stroke-dasharray:none;paint-order:stroke fill markers"
       d="m 408.95835,687.71409 v -6.69735"
       id="path1885" /><path
       style="fill:#002e75;fill-opacity:1;stroke:#000000;stroke-width:2;stroke-linecap:round;stroke-linejoin:miter;stroke-dasharray:none;paint-order:stroke fill markers"
       d="m 419.06896,687.77763 0.0289,-9.97621"
       id="path1887"
       sodipodi:nodetypes="cc" /><path
       style="fill:#002e75;fill-opacity:1;stroke:#000000;stroke-width:2;stroke-linecap:round;stroke-linejoin:miter;stroke-dasharray:none;paint-order:stroke fill markers"
       d="m 432.14807,689.01398 -0.20751,-11.72543"
       id="path1889"
       sodipodi:nodetypes="cc" /><path
       style="fill:#002e75;fill-opacity:1;stroke:#000000;stroke-width:2;stroke-linecap:round;stroke-linejoin:miter;stroke-dasharray:none;paint-order:stroke fill markers"
       d="m 441.02128,689.05981 -0.17499,-10.31059 v 0"
       id="path1891" /><path
       style="fill:#002e75;fill-opacity:1;stroke:#000000;stroke-width:2;stroke-linecap:round;stroke-linejoin:miter;stroke-dasharray:none;paint-order:stroke fill markers"
       d="m 451.91724,689.95557 0.26664,-7.34834"
       id="path1893" /><path
       style="fill:#002e75;fill-opacity:1;stroke:#000000;stroke-width:2;stroke-linecap:round;stroke-linejoin:miter;stroke-dasharray:none;paint-order:stroke fill markers"
       d="m 459.28849,689.87016 0.13679,-11.9299"
       id="path1895"
       sodipodi:nodetypes="cc" /><path
       style="fill:#002e75;fill-opacity:1;stroke:#000000;stroke-width:2;stroke-linecap:round;stroke-linejoin:miter;stroke-dasharray:none;paint-order:stroke fill markers"
       d="m 470.148,690.29617 0.71973,-8.68573"
       id="path1897" /><path
       style="fill:#002e75;fill-opacity:1;stroke:#000000;stroke-width:2;stroke-linecap:round;stroke-linejoin:miter;stroke-dasharray:none;paint-order:stroke fill markers"
       d="m 476.9016,691.04715 1.66652,-10.88242"
       id="path1899" /><path
       style="fill:#002e75;fill-opacity:1;stroke:#000000;stroke-width:2;stroke-linecap:round;stroke-linejoin:miter;stroke-dasharray:none;paint-order:stroke fill markers"
       d="m 328.95986,687.53911 -1.43009,-8.77218"
       id="path1901" /></g><g
     inkscape:groupmode="layer"
     id="layer4"
     inkscape:label="boceto head"
     style="display:inline"
     transform="translate(-122.02911,-70.356235)"><path
       id="path1119"
       style="fill:url(#linearGradient1796);fill-opacity:1;stroke:#000201;stroke-width:4;stroke-dasharray:none;stroke-opacity:1;paint-order:fill markers stroke"
       d="m 613.52188,254.19025 c 0,25.35786 -5.24872,49.51541 -14.74046,71.48793 -4.74587,10.98626 -20.57154,28.07253 -28.7863,45.61293 -8.21476,17.5404 -8.90818,35.27828 -16.47295,44.43386 -30.7112,37.1695 -79.63086,21.76168 -127.57387,22.12314 -103.59402,0 -183.9775,-81.69289 -183.9775,-183.12433 0,-101.43143 67.66327,-180.494262 185.72148,-177.302464 103.55618,2.799724 185.82961,75.337494 185.8296,176.768934 z"
       sodipodi:nodetypes="sssscsss" /></g><path
     style="fill:url(#linearGradient4946);fill-opacity:1;stroke:#000000;stroke-width:4;stroke-dasharray:none;stroke-opacity:1;paint-order:markers fill stroke"
     d="M 207.46141,34.014875 C 212.17753,25.499663 79.245985,11.5188 74.902315,31.803595 72.702155,42.078255 143.06299,143.58726 143.06299,143.58726 Z"
     id="path1175"
     sodipodi:nodetypes="cscc" /><path
     style="fill:url(#linearGradient4948);fill-opacity:1;stroke:#000000;stroke-width:4;stroke-dasharray:none;stroke-opacity:1;paint-order:markers fill stroke"
     d="m 397.92166,37.542195 c 0,0 19.39835,-8.333776 29.7394,-10.577406 24.90651,-5.403816 88.18099,4.022006 91.52461,9.463516 6.21729,10.11842 -55.862,132.135405 -55.862,132.135405 z"
     id="path1177"
     sodipodi:nodetypes="csscc" /><g
     inkscape:groupmode="layer"
     id="layer6"
     inkscape:label="boceto arms 1"
     style="display:inline"
     transform="translate(-122.02911,-70.356235)"><path
       style="opacity:1;fill:#002255;fill-opacity:1;stroke:#000000;stroke-width:4;stroke-linejoin:round;stroke-dasharray:none;stroke-opacity:1;paint-order:markers fill stroke"
       d="m 459.88017,442.16696 c 0,0 10.8079,-4.89403 20.1317,0.36069 13.3046,7.49826 39.9997,54.53759 40.102,68.95481 0.083,11.69771 -13.3126,41.24896 -13.3126,41.24896 l -12.221,-1.09427 z"
       id="path1810"
       sodipodi:nodetypes="cssccc" /></g><g
     inkscape:groupmode="layer"
     id="layer8"
     inkscape:label="Mano"
     style="display:inline;fill:url(#linearGradient5091);fill-opacity:1"
     transform="translate(-122.02911,-70.356235)"><path
       style="opacity:1;fill:url(#linearGradient414);fill-opacity:1;stroke:#000000;stroke-width:3;stroke-linejoin:round;stroke-dasharray:none;stroke-opacity:1;paint-order:markers fill stroke"
       d="m 430.47006,464.26192 c 0,0 -32.06786,-4.72859 -32.9185,-16.8066 -1.23079,-17.47551 22.0353,-41.31833 35.54606,-40.50537 9.54531,0.57435 12.05256,23.44116 12.05256,23.44116 0,0 14.34605,-1.98196 21.03131,0.12881 3.7231,1.17552 7.60901,5.01381 4.77399,7.69821 -2.70718,2.56336 -9.69423,5.12217 -9.69423,5.12217 l 2.709,5.3349 -31.15433,19.96184 z"
       id="path1841"
       sodipodi:nodetypes="csscsscccc" /></g><path
     style="display:inline;fill:#002255;fill-opacity:1;stroke:#000000;stroke-width:4;stroke-linecap:round;stroke-linejoin:round;stroke-dasharray:none;stroke-opacity:1;paint-order:markers fill stroke"
     d="m 374.52636,440.79486 -7.7929,-22.97997 -20.0151,-26.23408 c 0,0 1.3834,-11.36376 -0.7063,-15.00421 -1.2628,-2.19999 -7.5686,-0.79275 -7.5686,-0.79275 -11.796,10.09094 -24.9929,18.65579 -42.21877,22.83205 0,0 -0.9144,11.64755 0.2941,13.74443 1.32976,2.30727 7.9442,0.84594 7.9442,0.84594 0,0 -3.05204,7.34566 -2.5993,8.47767 1.04647,2.61656 8.07877,2.49129 8.07877,2.49129 0,0 26.7404,42.64057 37.6003,52.60612 8.4516,7.75554 35.12499,5.26244 35.12499,5.26244"
     id="path1651"
     sodipodi:nodetypes="cccsccscscsc" /><g
     inkscape:groupmode="layer"
     id="layer10"
     inkscape:label="eyes"
     style="display:inline"
     transform="translate(-122.02911,-70.356235)" /><g
     id="g2259"
     transform="translate(-126.51177,-49.609513)"><path
       id="path2015"
       style="display:inline;opacity:1;fill:#000000;fill-opacity:1;stroke:none;stroke-width:2.31684;stroke-linejoin:round;stroke-opacity:0.465218;paint-order:markers fill stroke"
       d="m 422.11851,352.1546 c -1.04077,14.82816 -8.0608,24.69935 -17.42703,26.91483 -10.49486,2.48244 -17.73879,-8.22427 -15.34167,-25.58041 2.03371,-14.72488 7.80844,-26.57261 17.42704,-26.91484 12.27072,-0.43659 16.48551,9.28368 15.34166,25.58042 z"
       sodipodi:nodetypes="sssss" /><ellipse
       style="display:inline;opacity:1;fill:#ffffff;fill-opacity:1;stroke:none;stroke-width:2.489;stroke-linejoin:round;stroke-opacity:0.465218;paint-order:markers fill stroke"
       id="path2070"
       cx="457.98572"
       cy="275.96808"
       rx="3.1178429"
       ry="4.6738558"
       transform="rotate(10.49955)" /><ellipse
       style="display:inline;opacity:1;fill:#ffffff;fill-opacity:1;stroke:none;stroke-width:2.489;stroke-linejoin:round;stroke-opacity:0.465218;paint-order:markers fill stroke"
       id="path2070-3"
       cx="514.50281"
       cy="197.2861"
       rx="3.1178429"
       ry="4.6738558"
       transform="rotate(21.492228)" /></g><g
     id="g2267"
     transform="translate(3.4882347,-49.609513)"><path
       id="path2261"
       style="display:inline;opacity:1;fill:#000000;fill-opacity:1;stroke:none;stroke-width:2.31684;stroke-linejoin:round;stroke-opacity:0.465218;paint-order:markers fill stroke"
       d="m 422.11851,352.1546 c -1.04077,14.82816 -8.0608,24.69935 -17.42703,26.91483 -10.49486,2.48244 -17.73879,-8.22427 -15.34167,-25.58041 2.03371,-14.72488 7.80844,-26.57261 17.42704,-26.91484 12.27072,-0.43659 16.48551,9.28368 15.34166,25.58042 z"
       sodipodi:nodetypes="sssss" /><ellipse
       style="display:inline;opacity:1;fill:#ffffff;fill-opacity:1;stroke:none;stroke-width:2.489;stroke-linejoin:round;stroke-opacity:0.465218;paint-order:markers fill stroke"
       id="ellipse2263"
       cx="457.98572"
       cy="275.96808"
       rx="3.1178429"
       ry="4.6738558"
       transform="rotate(10.49955)" /><ellipse
       style="display:inline;opacity:1;fill:#ffffff;fill-opacity:1;stroke:none;stroke-width:2.489;stroke-linejoin:round;stroke-opacity:0.465218;paint-order:markers fill stroke"
       id="ellipse2265"
       cx="514.50281"
       cy="197.2861"
       rx="3.1178429"
       ry="4.6738558"
       transform="rotate(21.492228)" /></g><g
     inkscape:groupmode="layer"
     id="layer11"
     inkscape:label="Ceja"
     style="display:inline"
     transform="translate(-122.02911,-70.356235)"><path
       style="color:#000000;fill:#552200;fill-opacity:0.980285;stroke-linejoin:round;-inkscape-stroke:none;paint-order:markers fill stroke"
       d="m 392.66878,333.73728 c -11.49597,15.34906 -23.52334,24.16836 -33.30576,24.48359 18.82313,1.53483 33.44396,-17.26969 37.58266,-21.93546 z"
       id="path3209"
       sodipodi:nodetypes="cccc" /><path
       style="color:#000000;fill:#552200;fill-opacity:0.980285;stroke-linejoin:round;-inkscape-stroke:none;paint-order:markers fill stroke"
       d="m 533.48924,333.10905 c 7.1151,9.85045 21.0013,15.87516 34.19,15.83972 -20.9871,3.06882 -34.3282,-8.62582 -38.4669,-13.29159 z"
       id="path3269"
       sodipodi:nodetypes="cccc" /></g><g
     inkscape:groupmode="layer"
     id="layer15"
     inkscape:label="ear 1"
     style="display:inline"
     transform="translate(-122.02911,-70.356235)" /><path
     style="fill:#ffffff;fill-opacity:1;stroke:#947c89;stroke-width:6;stroke-linecap:round;stroke-linejoin:miter;stroke-dasharray:none;stroke-opacity:1;paint-order:stroke fill markers"
     d="m 433.39216,51.238165 c 17.94992,-4.09245 43.09874,-9.15172 66.33077,-2.07093 -6.92619,17.02032 -16.82534,35.19206 -22.64761,53.131655 z"
     id="path3614"
     sodipodi:nodetypes="cccc" /><path
     style="fill:#ffffff;fill-opacity:1;stroke:#947c89;stroke-width:6;stroke-linecap:round;stroke-linejoin:miter;stroke-dasharray:none;stroke-opacity:1;paint-order:stroke fill markers"
     d="m 172.87793,46.204685 c -13.51757,-4.03391 -35.49718,-8.17802 -62.23505,-1.53055 6.92619,17.02032 16.22724,34.54179 22.04951,52.48139 z"
     id="path3616"
     sodipodi:nodetypes="cccc" /><g
     inkscape:groupmode="layer"
     id="layer12"
     inkscape:label="mouth"
     transform="translate(-122.02911,-70.356235)"><path
       style="fill:#000000;fill-opacity:1;stroke:none;stroke-width:1.6;stroke-linejoin:round;stroke-dasharray:none;stroke-opacity:0.980285;paint-order:markers fill stroke"
       d="m 1040.0696,425.64628 c -0.1394,-0.37669 2.613,-1.73433 6.4396,-1.7572 3.8239,-0.0229 6.6342,1.15507 6.565,1.45283 -0.082,0.35438 -3.0226,-0.14577 -6.5593,-0.13658 -3.5368,0.009 -6.319,0.78214 -6.4453,0.44095 z"
       id="path3272"
       inkscape:path-effect="#path-effect3274-5"
       inkscape:original-d="m 1040.0696,425.64628 c 3.5788,-1.32473 7.3778,-1.61118 13.0046,-0.30438"
       class="UnoptimicedTransforms"
       sodipodi:nodetypes="cc"
       transform="translate(-596.5022,-5.4296053)" /></g><g
     inkscape:groupmode="layer"
     id="layer13"
     inkscape:label="freckles"
     transform="translate(-122.02911,-70.356235)"><ellipse
       style="opacity:1;fill:#aa4400;fill-opacity:1;stroke:none;stroke-width:1.6;stroke-linejoin:round;stroke-dasharray:none;stroke-opacity:0.980285;paint-order:markers fill stroke"
       id="path3361"
       cx="397.35663"
       cy="406.08591"
       rx="1.2956419"
       ry="1.2063278" /><ellipse
       style="fill:#ff6600;fill-opacity:1;stroke:none;stroke-width:1.6;stroke-linejoin:round;stroke-dasharray:none;stroke-opacity:0.980285;paint-order:markers fill stroke"
       id="path3361-6"
       cx="405.67856"
       cy="410.1459"
       rx="1.2956419"
       ry="1.2063278" /><ellipse
       style="fill:#d45500;fill-opacity:1;stroke:none;stroke-width:1.6;stroke-linejoin:round;stroke-dasharray:none;stroke-opacity:0.980285;paint-order:markers fill stroke"
       id="path3361-2"
       cx="387.19067"
       cy="411.25848"
       rx="1.2956419"
       ry="1.2063278" /><ellipse
       style="fill:#aa4400;fill-opacity:1;stroke:none;stroke-width:1.6;stroke-linejoin:round;stroke-dasharray:none;stroke-opacity:0.980285;paint-order:markers fill stroke"
       id="path3361-9"
       cx="533.70337"
       cy="402.53391"
       rx="1.2956419"
       ry="1.2063278" /><ellipse
       style="fill:#d45500;fill-opacity:1;stroke:none;stroke-width:1.6;stroke-linejoin:round;stroke-dasharray:none;stroke-opacity:0.980285;paint-order:markers fill stroke"
       id="path3361-1"
       cx="526.07629"
       cy="407.4534"
       rx="1.2956419"
       ry="1.2063278" /><ellipse
       style="fill:#ff6600;fill-opacity:1;stroke:none;stroke-width:1.6;stroke-linejoin:round;stroke-dasharray:none;stroke-opacity:0.980285;paint-order:markers fill stroke"
       id="path3361-27"
       cx="542.72882"
       cy="403.43646"
       rx="1.2956419"
       ry="1.2063278" /></g><g
     inkscape:groupmode="layer"
     id="layer16"
     inkscape:label="hair tail"
     style="display:inline"
     transform="translate(-122.02911,-70.356235)"><path
       style="opacity:1;fill:url(#linearGradient1162);fill-opacity:1;stroke:#f69100;stroke-width:4;stroke-linejoin:miter;stroke-dasharray:none;stroke-opacity:1;paint-order:markers fill stroke"
       d="m 666.03177,208.44009 c 22.3532,22.06328 19.2707,58.01956 14.71,69.49499 -5.4702,13.76399 -15.5459,31.45182 -31.8299,50.31344 -14.8031,17.14631 -30.94039,28.73735 -30.50489,51.48009 0.5961,31.12433 51.76955,30.68204 51.76955,30.68204 0,0 -30.20078,18.47305 -49.44471,18.54628 -17.04934,0.0649 -26.59005,-8.21859 -35.59115,-17.72078 -8.7479,-9.23489 -15.8168,-21.93001 -14.622,-46.93383 1.3533,-28.32187 22.30752,-66.43441 29.31082,-78.10199 10.1363,-16.8872 16.6679,-25.94101 12.9742,-40.67598 -3.725,-14.85989 -5.99772,-34.58134 -5.99772,-38.49028 13.3845,-20.66991 43.7028,-13.91562 59.2258,1.40602 z"
       id="path3892"
       sodipodi:nodetypes="sssscssssscs" /><path
       style="fill:url(#linearGradient1170);fill-opacity:1;stroke:#f8a30b;stroke-width:4;stroke-linejoin:miter;stroke-dasharray:none;stroke-opacity:1;paint-order:markers fill stroke"
       d="m 244.85015,187.00549 c 0,0 -14.78874,-31.80481 -49.46208,-25.80367 -47.72548,11.08855 -39.83979,79.18394 -25.6869,105.18013 12.21552,29.22691 43.84804,47.94317 51.1479,78.98258 2.81556,11.97189 3.46354,27.28344 -3.91017,36.79354 -7.11154,9.17199 -30.57491,7.95647 -33.92253,8.09324 4.83747,2.58675 29.75569,4.44838 41.11831,1.19821 11.51797,-3.29461 23.18914,-14.30943 28.55725,-26.48823 7.84217,-17.79181 1.32887,-58.96752 1.32887,-58.96752 L 241.89762,205.69536 Z"
       id="path7959"
       sodipodi:nodetypes="cccsscssccc" /></g><path
     style="fill:#00ccff;fill-opacity:1;stroke:#000000;stroke-width:4;stroke-linejoin:miter;stroke-dasharray:none;stroke-opacity:1;paint-order:markers fill stroke"
     d="m 492.42882,155.84224 -8.5252,-31.57274 18.45264,-10.59096 z"
     id="path3821" /><path
     style="fill:#00ccff;fill-opacity:1;stroke:#000000;stroke-width:4;stroke-linejoin:miter;stroke-dasharray:none;stroke-opacity:1;paint-order:markers fill stroke"
     d="m 484.8857,124.77556 5.25823,32.27798 21.17838,2.03583 z"
     id="path3877" /><path
     style="fill:#00ccff;fill-opacity:1;stroke:#000000;stroke-width:4;stroke-linejoin:miter;stroke-dasharray:none;stroke-opacity:1;paint-order:markers fill stroke"
     d="M 116.73879,138.22066 128.7367,107.78638 110.18839,96.755782 Z"
     id="path3879"
     sodipodi:nodetypes="cccc" /><path
     style="fill:#00ccff;fill-opacity:1;stroke:#000000;stroke-width:4;stroke-linejoin:miter;stroke-dasharray:none;stroke-opacity:1;paint-order:markers fill stroke"
     d="m 127.86671,109.81529 -9.25554,29.7125 -22.927364,-2.21407 z"
     id="path3881"
     sodipodi:nodetypes="cccc" /><g
     inkscape:groupmode="layer"
     id="layer14"
     inkscape:label="hair front"
     style="display:inline"
     transform="translate(-122.02911,-70.356235)"><path
       style="opacity:1;fill:url(#linearGradient1067);fill-opacity:1;stroke:#f69100;stroke-width:8;stroke-linecap:round;stroke-linejoin:miter;stroke-dasharray:none;stroke-opacity:1;paint-order:stroke fill markers"
       d="m 419.61827,215.38089 c 22.87782,40.71265 42.53032,64.741 56.65712,105.16194 6.1408,-24.93856 -0.3527,-58.51629 -13.3788,-87.05696 6.9786,9.3032 14.5535,17.38215 19.6922,30.46202 2.1747,-14.61351 0.6727,-22.77916 0.095,-32.56606 l 14.4856,40.11646 c 6.2838,-16.16366 4.4785,-28.98907 6.7177,-43.4836 24.3062,34.75954 36.5833,71.09941 46.535,105.20891 7.3233,-32.40804 -0.035,-66.93968 -8.9481,-104.12199 6.3812,42.31898 42.04478,98.51072 25.56473,155.16615 21.84881,-16.5923 48.03889,-88.52682 49.10388,-120.32234 1.2265,-36.61765 -9.4763,-84.21926 -35.49655,-116.8905 C 544.21947,101.3174 473.60711,76.526552 427.20948,74.525831 370.82046,72.094271 326.06981,96.418762 302.75523,112.4782 c -31.06296,21.39664 -53.78193,68.77255 -59.15746,86.81867 -6.23762,20.94022 -6.38812,70.56365 -2.99598,91.39536 6.28012,38.56729 32.90592,75.1854 51.16376,93.62166 19.29549,19.48403 59.54673,37.50833 59.54673,37.50833 -12.39992,-26.17083 -21.27687,-65.43933 -23.97554,-102.00733 13.61697,39.26663 29.77799,88.90753 56.27276,104.04033 -18.34961,-38.79385 -20.06282,-74.07356 -23.13322,-107.12161 6.34664,10.57688 11.12411,20.29158 17.71826,24.89968 -11.20417,-33.2994 -6.84009,-61.33886 0.39714,-91.11229 6.09073,18.36041 8.17267,43.3424 21.08366,58.89997 -8.82373,-48.54248 7.91983,-68.43884 19.94293,-94.04008 z"
       id="path9038"
       sodipodi:nodetypes="ccccccccccssssssscccccccc" /></g><g
     inkscape:groupmode="layer"
     id="layer17"
     inkscape:label="403"><rect
       style="fill:#483737;stroke:#121212;stroke-width:5.27305;stroke-linecap:round;stroke-opacity:1;paint-order:normal"
       id="rect479"
       width="24.548992"
       height="410.53162"
       x="732.29639"
       y="281.73532" /><path
       sodipodi:type="star"
       style="fill:#aa0000;fill-opacity:1;stroke:#000000;stroke-width:9.82340127;stroke-linecap:round;stroke-dasharray:none;stroke-opacity:1;paint-order:normal"
       id="path4597"
       inkscape:flatsided="false"
       sodipodi:sides="8"
       sodipodi:cx="1201.6024"
       sodipodi:cy="30.990767"
       sodipodi:r1="234.82939"
       sodipodi:r2="217.09853"
       sodipodi:arg1="0.99663302"
       sodipodi:arg2="1.3666635"
       inkscape:rounded="0"
       inkscape:randomized="0"
       d="m 1329.1459,228.16457 -83.5337,15.41714 -93.2459,17.01884 -69.9688,-48.16566 -77.9689,-53.90066 -15.41712,-83.53367 -17.01884,-93.245878 48.16566,-69.968788 53.9007,-77.968924 83.5336,-15.41714 93.2459,-17.01884 69.9688,48.16566 77.9689,53.900653 15.4172,83.53367 17.0188,93.245878 -48.1657,69.968789 z"
       transform="matrix(0.6015205,0.10598645,-0.10598645,0.6015205,25.066886,157.76089)" /><text
       xml:space="preserve"
       style="font-style:normal;font-variant:normal;font-weight:normal;font-stretch:normal;font-size:75.822px;font-family:'Riffic Free';-inkscape-font-specification:'Riffic Free';text-align:center;text-anchor:middle;fill:#ffffff;fill-opacity:1;stroke:none;stroke-width:4.73892;stroke-linecap:round;stroke-opacity:1;paint-order:normal"
       x="744.57074"
       y="332.83377"
       id="text4794"><tspan
         sodipodi:role="line"
         id="tspan4792"
         x="744.57074"
         y="332.83377"
         style="font-style:normal;font-variant:normal;font-weight:normal;font-stretch:normal;font-family:'Riffic Free';-inkscape-font-specification:'Riffic Free';stroke-width:4.73892">STOP</tspan></text><path
       id="path5103"
       style="fill:none;fill-opacity:1;stroke:#ffffff;stroke-width:4.73885;stroke-linecap:round;stroke-dasharray:none;stroke-opacity:1;paint-order:normal"
       d="m 796.06836,174.875 c -30.36919,0.18415 -60.73847,0.35661 -91.10703,0.62917 -4.84323,0.0387 -9.68645,0.0796 -14.52969,0.11692 -24.9469,25.23972 -49.86725,50.50567 -74.74805,75.81055 0.2004,35.486 0.45931,70.97163 0.7461,106.45703 25.24135,24.94983 50.51126,49.87077 75.81836,74.75391 35.48726,-0.20847 70.97437,-0.44717 106.46093,-0.75391 24.94893,-25.23771 49.8683,-50.50464 74.74805,-75.81055 -0.20558,-35.48728 -0.44429,-70.97439 -0.75391,-106.46093 -25.23713,-24.94885 -50.50468,-49.86693 -75.80859,-74.74805 -0.27539,0.002 -0.55078,0.004 -0.82617,0.006 z" /></g></svg>
